<mxfile host="app.diagrams.net" modified="2024-06-17T14:00:33.884Z" agent="Mozilla/5.0 (Windows NT 10.0; Win64; x64) AppleWebKit/537.36 (KHTML, like Gecko) Chrome/125.0.0.0 Safari/537.36" etag="QUkiHxnVwDxRYJiSmGlT" version="24.5.4" type="github">
  <diagram name="Página-1" id="YLk_u_1vePcQQS7yQciO">
    <mxGraphModel dx="1114" dy="610" grid="1" gridSize="10" guides="1" tooltips="1" connect="1" arrows="1" fold="1" page="1" pageScale="1" pageWidth="827" pageHeight="1169" math="0" shadow="0">
      <root>
        <mxCell id="0" />
        <mxCell id="1" parent="0" />
        <mxCell id="bRfRQvqsMXY8m4QTp9Di-1" value="Mensagens" style="swimlane;fontStyle=0;childLayout=stackLayout;horizontal=1;startSize=26;fillColor=none;horizontalStack=0;resizeParent=1;resizeParentMax=0;resizeLast=0;collapsible=1;marginBottom=0;whiteSpace=wrap;html=1;" parent="1" vertex="1">
          <mxGeometry x="160" y="320" width="160" height="78" as="geometry">
            <mxRectangle x="10" y="230" width="80" height="30" as="alternateBounds" />
          </mxGeometry>
        </mxCell>
        <mxCell id="bRfRQvqsMXY8m4QTp9Di-2" value="# titulo: String" style="text;strokeColor=none;fillColor=none;align=left;verticalAlign=top;spacingLeft=4;spacingRight=4;overflow=hidden;rotatable=0;points=[[0,0.5],[1,0.5]];portConstraint=eastwest;whiteSpace=wrap;html=1;" parent="bRfRQvqsMXY8m4QTp9Di-1" vertex="1">
          <mxGeometry y="26" width="160" height="26" as="geometry" />
        </mxCell>
        <mxCell id="bRfRQvqsMXY8m4QTp9Di-3" value="# dataCriação: Date" style="text;strokeColor=none;fillColor=none;align=left;verticalAlign=top;spacingLeft=4;spacingRight=4;overflow=hidden;rotatable=0;points=[[0,0.5],[1,0.5]];portConstraint=eastwest;whiteSpace=wrap;html=1;" parent="bRfRQvqsMXY8m4QTp9Di-1" vertex="1">
          <mxGeometry y="52" width="160" height="26" as="geometry" />
        </mxCell>
        <mxCell id="bRfRQvqsMXY8m4QTp9Di-7" value="Comentários" style="swimlane;fontStyle=0;childLayout=stackLayout;horizontal=1;startSize=26;fillColor=none;horizontalStack=0;resizeParent=1;resizeParentMax=0;resizeLast=0;collapsible=1;marginBottom=0;whiteSpace=wrap;html=1;" parent="1" vertex="1">
          <mxGeometry x="270" y="560" width="140" height="52" as="geometry" />
        </mxCell>
        <mxCell id="bRfRQvqsMXY8m4QTp9Di-8" value="- cnpj: long" style="text;strokeColor=none;fillColor=none;align=left;verticalAlign=top;spacingLeft=4;spacingRight=4;overflow=hidden;rotatable=0;points=[[0,0.5],[1,0.5]];portConstraint=eastwest;whiteSpace=wrap;html=1;" parent="bRfRQvqsMXY8m4QTp9Di-7" vertex="1">
          <mxGeometry y="26" width="140" height="26" as="geometry" />
        </mxCell>
        <mxCell id="bRfRQvqsMXY8m4QTp9Di-9" value="Notas" style="swimlane;fontStyle=0;childLayout=stackLayout;horizontal=1;startSize=26;fillColor=none;horizontalStack=0;resizeParent=1;resizeParentMax=0;resizeLast=0;collapsible=1;marginBottom=0;whiteSpace=wrap;html=1;" parent="1" vertex="1">
          <mxGeometry x="50" y="560" width="140" height="52" as="geometry" />
        </mxCell>
        <mxCell id="bRfRQvqsMXY8m4QTp9Di-12" value="- idade: int" style="text;strokeColor=none;fillColor=none;align=left;verticalAlign=top;spacingLeft=4;spacingRight=4;overflow=hidden;rotatable=0;points=[[0,0.5],[1,0.5]];portConstraint=eastwest;whiteSpace=wrap;html=1;" parent="bRfRQvqsMXY8m4QTp9Di-9" vertex="1">
          <mxGeometry y="26" width="140" height="26" as="geometry" />
        </mxCell>
        <mxCell id="bRfRQvqsMXY8m4QTp9Di-13" value="" style="endArrow=block;endSize=16;endFill=0;html=1;rounded=0;" parent="1" source="bRfRQvqsMXY8m4QTp9Di-9" target="bRfRQvqsMXY8m4QTp9Di-1" edge="1">
          <mxGeometry width="160" relative="1" as="geometry">
            <mxPoint x="150" y="600" as="sourcePoint" />
            <mxPoint x="310" y="600" as="targetPoint" />
            <Array as="points">
              <mxPoint x="240" y="500" />
            </Array>
          </mxGeometry>
        </mxCell>
        <mxCell id="bRfRQvqsMXY8m4QTp9Di-14" value="" style="endArrow=block;endSize=16;endFill=0;html=1;rounded=0;" parent="1" source="bRfRQvqsMXY8m4QTp9Di-7" target="bRfRQvqsMXY8m4QTp9Di-1" edge="1">
          <mxGeometry width="160" relative="1" as="geometry">
            <mxPoint x="350" y="430" as="sourcePoint" />
            <mxPoint x="240" y="384" as="targetPoint" />
            <Array as="points">
              <mxPoint x="240" y="500" />
            </Array>
          </mxGeometry>
        </mxCell>
        <mxCell id="bRfRQvqsMXY8m4QTp9Di-15" value="Blog" style="swimlane;fontStyle=1;align=center;verticalAlign=top;childLayout=stackLayout;horizontal=1;startSize=26;horizontalStack=0;resizeParent=1;resizeParentMax=0;resizeLast=0;collapsible=1;marginBottom=0;whiteSpace=wrap;html=1;" parent="1" vertex="1">
          <mxGeometry x="470" y="303" width="220" height="112" as="geometry" />
        </mxCell>
        <mxCell id="FkqlrBUK0DtWvigdb3or-8" value="# dataCriação: Date" style="text;strokeColor=none;fillColor=none;align=left;verticalAlign=top;spacingLeft=4;spacingRight=4;overflow=hidden;rotatable=0;points=[[0,0.5],[1,0.5]];portConstraint=eastwest;whiteSpace=wrap;html=1;" vertex="1" parent="bRfRQvqsMXY8m4QTp9Di-15">
          <mxGeometry y="26" width="220" height="26" as="geometry" />
        </mxCell>
        <mxCell id="FkqlrBUK0DtWvigdb3or-7" value="# titulo: String" style="text;strokeColor=none;fillColor=none;align=left;verticalAlign=top;spacingLeft=4;spacingRight=4;overflow=hidden;rotatable=0;points=[[0,0.5],[1,0.5]];portConstraint=eastwest;whiteSpace=wrap;html=1;" vertex="1" parent="bRfRQvqsMXY8m4QTp9Di-15">
          <mxGeometry y="52" width="220" height="26" as="geometry" />
        </mxCell>
        <mxCell id="bRfRQvqsMXY8m4QTp9Di-20" value="" style="line;strokeWidth=1;fillColor=none;align=left;verticalAlign=middle;spacingTop=-1;spacingLeft=3;spacingRight=3;rotatable=0;labelPosition=right;points=[];portConstraint=eastwest;strokeColor=inherit;" parent="bRfRQvqsMXY8m4QTp9Di-15" vertex="1">
          <mxGeometry y="78" width="220" height="8" as="geometry" />
        </mxCell>
        <mxCell id="FkqlrBUK0DtWvigdb3or-5" value="+ criarBlogs(Usuário u): void" style="text;strokeColor=none;fillColor=none;align=left;verticalAlign=top;spacingLeft=4;spacingRight=4;overflow=hidden;rotatable=0;points=[[0,0.5],[1,0.5]];portConstraint=eastwest;whiteSpace=wrap;html=1;" vertex="1" parent="bRfRQvqsMXY8m4QTp9Di-15">
          <mxGeometry y="86" width="220" height="26" as="geometry" />
        </mxCell>
        <mxCell id="FkqlrBUK0DtWvigdb3or-14" value="Dono" style="swimlane;fontStyle=1;align=center;verticalAlign=top;childLayout=stackLayout;horizontal=1;startSize=26;horizontalStack=0;resizeParent=1;resizeParentMax=0;resizeLast=0;collapsible=1;marginBottom=0;whiteSpace=wrap;html=1;" vertex="1" parent="1">
          <mxGeometry x="1000" y="603" width="220" height="78" as="geometry" />
        </mxCell>
        <mxCell id="FkqlrBUK0DtWvigdb3or-20" value="+ criarNotas(Usuário d): void" style="text;strokeColor=none;fillColor=none;align=left;verticalAlign=top;spacingLeft=4;spacingRight=4;overflow=hidden;rotatable=0;points=[[0,0.5],[1,0.5]];portConstraint=eastwest;whiteSpace=wrap;html=1;" vertex="1" parent="FkqlrBUK0DtWvigdb3or-14">
          <mxGeometry y="26" width="220" height="26" as="geometry" />
        </mxCell>
        <mxCell id="FkqlrBUK0DtWvigdb3or-28" value="+ removerConteúdos(Usuário d): void" style="text;strokeColor=none;fillColor=none;align=left;verticalAlign=top;spacingLeft=4;spacingRight=4;overflow=hidden;rotatable=0;points=[[0,0.5],[1,0.5]];portConstraint=eastwest;whiteSpace=wrap;html=1;" vertex="1" parent="FkqlrBUK0DtWvigdb3or-14">
          <mxGeometry y="52" width="220" height="26" as="geometry" />
        </mxCell>
        <mxCell id="FkqlrBUK0DtWvigdb3or-1" value="Mensagens" style="swimlane;fontStyle=0;childLayout=stackLayout;horizontal=1;startSize=26;fillColor=none;horizontalStack=0;resizeParent=1;resizeParentMax=0;resizeLast=0;collapsible=1;marginBottom=0;whiteSpace=wrap;html=1;" vertex="1" parent="1">
          <mxGeometry x="280" y="730" width="160" height="78" as="geometry">
            <mxRectangle x="10" y="230" width="80" height="30" as="alternateBounds" />
          </mxGeometry>
        </mxCell>
        <mxCell id="FkqlrBUK0DtWvigdb3or-2" value="# titulo: String" style="text;strokeColor=none;fillColor=none;align=left;verticalAlign=top;spacingLeft=4;spacingRight=4;overflow=hidden;rotatable=0;points=[[0,0.5],[1,0.5]];portConstraint=eastwest;whiteSpace=wrap;html=1;" vertex="1" parent="FkqlrBUK0DtWvigdb3or-1">
          <mxGeometry y="26" width="160" height="26" as="geometry" />
        </mxCell>
        <mxCell id="FkqlrBUK0DtWvigdb3or-3" value="# dataCriação: Date" style="text;strokeColor=none;fillColor=none;align=left;verticalAlign=top;spacingLeft=4;spacingRight=4;overflow=hidden;rotatable=0;points=[[0,0.5],[1,0.5]];portConstraint=eastwest;whiteSpace=wrap;html=1;" vertex="1" parent="FkqlrBUK0DtWvigdb3or-1">
          <mxGeometry y="52" width="160" height="26" as="geometry" />
        </mxCell>
        <mxCell id="FkqlrBUK0DtWvigdb3or-16" value="Comum" style="swimlane;fontStyle=1;align=center;verticalAlign=top;childLayout=stackLayout;horizontal=1;startSize=26;horizontalStack=0;resizeParent=1;resizeParentMax=0;resizeLast=0;collapsible=1;marginBottom=0;whiteSpace=wrap;html=1;" vertex="1" parent="1">
          <mxGeometry x="750" y="603" width="220" height="52" as="geometry" />
        </mxCell>
        <mxCell id="FkqlrBUK0DtWvigdb3or-18" value="" style="endArrow=block;endSize=16;endFill=0;html=1;rounded=0;" edge="1" parent="1" source="FkqlrBUK0DtWvigdb3or-16" target="FkqlrBUK0DtWvigdb3or-21">
          <mxGeometry width="160" relative="1" as="geometry">
            <mxPoint x="920" y="601" as="sourcePoint" />
            <mxPoint x="975.3170731707316" y="485" as="targetPoint" />
            <Array as="points">
              <mxPoint x="976" y="541" />
            </Array>
          </mxGeometry>
        </mxCell>
        <mxCell id="FkqlrBUK0DtWvigdb3or-19" value="" style="endArrow=block;endSize=16;endFill=0;html=1;rounded=0;" edge="1" parent="1" source="FkqlrBUK0DtWvigdb3or-14" target="FkqlrBUK0DtWvigdb3or-21">
          <mxGeometry width="160" relative="1" as="geometry">
            <mxPoint x="1053" y="601" as="sourcePoint" />
            <mxPoint x="975.3170731707316" y="485" as="targetPoint" />
            <Array as="points">
              <mxPoint x="976" y="541" />
            </Array>
          </mxGeometry>
        </mxCell>
        <mxCell id="FkqlrBUK0DtWvigdb3or-21" value="Usuário" style="swimlane;fontStyle=1;align=center;verticalAlign=top;childLayout=stackLayout;horizontal=1;startSize=26;horizontalStack=0;resizeParent=1;resizeParentMax=0;resizeLast=0;collapsible=1;marginBottom=0;whiteSpace=wrap;html=1;" vertex="1" parent="1">
          <mxGeometry x="870" y="303" width="220" height="164" as="geometry" />
        </mxCell>
        <mxCell id="FkqlrBUK0DtWvigdb3or-10" value="# e-mail : long" style="text;strokeColor=none;fillColor=none;align=left;verticalAlign=top;spacingLeft=4;spacingRight=4;overflow=hidden;rotatable=0;points=[[0,0.5],[1,0.5]];portConstraint=eastwest;whiteSpace=wrap;html=1;" vertex="1" parent="FkqlrBUK0DtWvigdb3or-21">
          <mxGeometry y="26" width="220" height="26" as="geometry" />
        </mxCell>
        <mxCell id="FkqlrBUK0DtWvigdb3or-24" value="" style="line;strokeWidth=1;fillColor=none;align=left;verticalAlign=middle;spacingTop=-1;spacingLeft=3;spacingRight=3;rotatable=0;labelPosition=right;points=[];portConstraint=eastwest;strokeColor=inherit;" vertex="1" parent="FkqlrBUK0DtWvigdb3or-21">
          <mxGeometry y="52" width="220" height="8" as="geometry" />
        </mxCell>
        <mxCell id="FkqlrBUK0DtWvigdb3or-25" value="+ criarBlogs(Usuário u): void" style="text;strokeColor=none;fillColor=none;align=left;verticalAlign=top;spacingLeft=4;spacingRight=4;overflow=hidden;rotatable=0;points=[[0,0.5],[1,0.5]];portConstraint=eastwest;whiteSpace=wrap;html=1;" vertex="1" parent="FkqlrBUK0DtWvigdb3or-21">
          <mxGeometry y="60" width="220" height="26" as="geometry" />
        </mxCell>
        <mxCell id="FkqlrBUK0DtWvigdb3or-13" value="+ lerConteúdos(Usuário u): void" style="text;strokeColor=none;fillColor=none;align=left;verticalAlign=top;spacingLeft=4;spacingRight=4;overflow=hidden;rotatable=0;points=[[0,0.5],[1,0.5]];portConstraint=eastwest;whiteSpace=wrap;html=1;" vertex="1" parent="FkqlrBUK0DtWvigdb3or-21">
          <mxGeometry y="86" width="220" height="26" as="geometry" />
        </mxCell>
        <mxCell id="FkqlrBUK0DtWvigdb3or-27" value="+ lerNotas(Usuário u): void" style="text;strokeColor=none;fillColor=none;align=left;verticalAlign=top;spacingLeft=4;spacingRight=4;overflow=hidden;rotatable=0;points=[[0,0.5],[1,0.5]];portConstraint=eastwest;whiteSpace=wrap;html=1;" vertex="1" parent="FkqlrBUK0DtWvigdb3or-21">
          <mxGeometry y="112" width="220" height="26" as="geometry" />
        </mxCell>
        <mxCell id="FkqlrBUK0DtWvigdb3or-26" value="+ criarComentários(Usuário u): void" style="text;strokeColor=none;fillColor=none;align=left;verticalAlign=top;spacingLeft=4;spacingRight=4;overflow=hidden;rotatable=0;points=[[0,0.5],[1,0.5]];portConstraint=eastwest;whiteSpace=wrap;html=1;" vertex="1" parent="FkqlrBUK0DtWvigdb3or-21">
          <mxGeometry y="138" width="220" height="26" as="geometry" />
        </mxCell>
        <mxCell id="bRfRQvqsMXY8m4QTp9Di-31" value="possui" style="endArrow=open;endSize=12;dashed=1;html=1;rounded=0;" parent="1" source="bRfRQvqsMXY8m4QTp9Di-15" target="FkqlrBUK0DtWvigdb3or-21" edge="1">
          <mxGeometry width="160" relative="1" as="geometry">
            <mxPoint x="830" y="400" as="sourcePoint" />
            <mxPoint x="640" y="400" as="targetPoint" />
          </mxGeometry>
        </mxCell>
        <mxCell id="bRfRQvqsMXY8m4QTp9Di-32" value="1..*" style="text;html=1;align=center;verticalAlign=middle;whiteSpace=wrap;rounded=0;" parent="1" vertex="1">
          <mxGeometry x="680" y="340" width="70" height="20" as="geometry" />
        </mxCell>
        <mxCell id="bRfRQvqsMXY8m4QTp9Di-33" value="1..*" style="text;html=1;align=center;verticalAlign=middle;whiteSpace=wrap;rounded=0;" parent="1" vertex="1">
          <mxGeometry x="810" y="349" width="50" height="20" as="geometry" />
        </mxCell>
      </root>
    </mxGraphModel>
  </diagram>
</mxfile>
